<svg xmlns="http://www.w3.org/2000/svg" xmlns:xlink="http://www.w3.org/1999/xlink" width="122" height="122" viewBox="0 0 122 122">
  <defs>
    <linearGradient id="linear-gradient" x1="0.701" y1="0.074" x2="0.213" y2="1.038" gradientUnits="objectBoundingBox">
      <stop offset="0" stop-color="#114a8b"/>
      <stop offset="1" stop-color="#0669bc"/>
    </linearGradient>
    <linearGradient id="linear-gradient-2" x1="0.612" y1="0.523" x2="0.531" y2="0.549" gradientUnits="objectBoundingBox">
      <stop offset="0" stop-opacity="0.302"/>
      <stop offset="0.1" stop-opacity="0.2"/>
      <stop offset="0.3" stop-opacity="0.102"/>
      <stop offset="0.6" stop-opacity="0.102"/>
      <stop offset="1" stop-opacity="0"/>
    </linearGradient>
    <linearGradient id="linear-gradient-3" x1="0.243" y1="0.046" x2="0.752" y2="1" gradientUnits="objectBoundingBox">
      <stop offset="0" stop-color="#3ccbf4"/>
      <stop offset="1" stop-color="#2892df"/>
    </linearGradient>
  </defs>
  <g id="Group_18587" data-name="Group 18587" transform="translate(-82 -6963.729)">
    <g id="Rectangle_10853" data-name="Rectangle 10853" transform="translate(82 6963.729)" fill="#fff" stroke="#707070" stroke-width="1" opacity="0.1">
      <rect width="122" height="122" rx="16" stroke="none"/>
      <rect x="0.5" y="0.5" width="121" height="121" rx="15.5" fill="none"/>
    </g>
    <g id="azure-2" transform="translate(113.545 6996.713)">
      <path id="Path_26892" data-name="Path 26892" d="M19.526.381H36.836L18.866,53.657a2.762,2.762,0,0,1-2.615,1.879H2.779A2.758,2.758,0,0,1,.167,51.9L16.91,2.259A2.762,2.762,0,0,1,19.525.38h0Z" transform="translate(0)" fill="url(#linear-gradient)"/>
      <path id="Path_26893" data-name="Path 26893" d="M253.389,508.46H237.845a2.792,2.792,0,0,1-1.017-.193,2.769,2.769,0,0,1-.875-.552l-17.639-16.473a1.271,1.271,0,0,1,.867-2.2h27.45l6.757,19.42Z" transform="translate(-201.953 -452.924)" fill="#0078d4"/>
      <path id="Path_26894" data-name="Path 26894" d="M36.96.4,24.843,36.138l19.8,0,6.792,19.42H35.948a2.838,2.838,0,0,1-.478-.045,2.75,2.75,0,0,1-.464-.126,2.814,2.814,0,0,1-.831-.476L22.269,43.794l-3.333,9.83a2.952,2.952,0,0,1-2.267,1.929H2.849a2.754,2.754,0,0,1-2.6-3.684L16.967,2.314a2.714,2.714,0,0,1,.388-.774A2.734,2.734,0,0,1,19.588.4H36.961Z" transform="translate(-0.062 -0.018)" fill="url(#linear-gradient-2)"/>
      <path id="Path_26895" data-name="Path 26895" d="M308.195,51.914a2.756,2.756,0,0,1-2.61,3.64H286.292a2.758,2.758,0,0,0,2.612-3.64L272.161,2.276A2.754,2.754,0,0,0,269.55.4h19.292a2.756,2.756,0,0,1,2.612,1.876L308.2,51.914Z" transform="translate(-249.817 -0.019)" fill="url(#linear-gradient-3)"/>
    </g>
  </g>
</svg>
