<svg xmlns="http://www.w3.org/2000/svg" width="122" height="122" viewBox="0 0 122 122">
  <g id="Group_18571" data-name="Group 18571" transform="translate(-82 -6964)">
    <g id="Rectangle_10853" data-name="Rectangle 10853" transform="translate(82 6964)" fill="#fff" stroke="#707070" stroke-width="1" opacity="0.1">
      <rect width="122" height="122" rx="16" stroke="none"/>
      <rect x="0.5" y="0.5" width="121" height="121" rx="15.5" fill="none"/>
    </g>
    <g id="angular-icon-1_1_" data-name="angular-icon-1 (1)" transform="translate(108.9 6988.303)">
      <path id="Path_26743" data-name="Path 26743" d="M.1,12.564,33.406.7l34.2,11.656L62.072,56.419,33.406,72.294,5.19,56.63Z" transform="translate(0)" fill="#e23237"/>
      <path id="Path_26744" data-name="Path 26744" d="M160.111,12.353,125.908.7v71.6l28.665-15.849,5.538-44.092Z" transform="translate(-92.502)" fill="#b52e31"/>
      <path id="Path_26745" data-name="Path 26745" d="M68.468,32.274,47.714,78.45l7.753-.132L59.634,67.9H78.251L82.814,78.45l7.41.132L68.468,32.274Zm.053,14.794L75.535,61.73H62.35Z" transform="translate(-35.009 -23.217)" fill="#fff"/>
    </g>
  </g>
</svg>
