<svg xmlns="http://www.w3.org/2000/svg" width="122" height="122" viewBox="0 0 122 122">
  <g id="Group_18586" data-name="Group 18586" transform="translate(-82 -6963.729)">
    <g id="Rectangle_10853" data-name="Rectangle 10853" transform="translate(82 6963.729)" fill="#fff" stroke="#707070" stroke-width="1" opacity="0.1">
      <rect width="122" height="122" rx="16" stroke="none"/>
      <rect x="0.5" y="0.5" width="121" height="121" rx="15.5" fill="none"/>
    </g>
    <g id="aws-2_1_" data-name="aws-2 (1)" transform="translate(103.332 7000.629)">
      <path id="Path_26889" data-name="Path 26889" d="M32.464,17.686a7.685,7.685,0,0,0,.279,2.261,13.6,13.6,0,0,0,.813,1.829,1.1,1.1,0,0,1,.178.584,1.006,1.006,0,0,1-.483.762l-1.6,1.067a1.218,1.218,0,0,1-.66.229,1.169,1.169,0,0,1-.762-.356,7.858,7.858,0,0,1-.914-1.194c-.254-.432-.508-.914-.787-1.5a9.383,9.383,0,0,1-7.467,3.505,6.959,6.959,0,0,1-5.08-1.829,6.525,6.525,0,0,1-1.88-4.877,6.539,6.539,0,0,1,2.311-5.232,9.24,9.24,0,0,1,6.223-1.981,20.11,20.11,0,0,1,2.692.2c.94.127,1.9.33,2.921.559V9.863c0-1.93-.406-3.277-1.194-4.064-.813-.787-2.184-1.168-4.14-1.168a11.556,11.556,0,0,0-2.743.33,20.239,20.239,0,0,0-2.743.864,7.288,7.288,0,0,1-.889.33,1.558,1.558,0,0,1-.406.076c-.356,0-.533-.254-.533-.787V4.2a1.607,1.607,0,0,1,.178-.889,1.9,1.9,0,0,1,.711-.533,14.623,14.623,0,0,1,3.2-1.143,15.4,15.4,0,0,1,3.962-.483c3.023,0,5.232.686,6.655,2.057,1.4,1.372,2.108,3.454,2.108,6.248v8.229ZM22.152,21.547a8.232,8.232,0,0,0,2.616-.457,5.66,5.66,0,0,0,2.413-1.626,4.032,4.032,0,0,0,.864-1.626,9.119,9.119,0,0,0,.254-2.21V14.562a21.211,21.211,0,0,0-2.337-.432,19.139,19.139,0,0,0-2.388-.152,5.856,5.856,0,0,0-3.785,1.016,3.54,3.54,0,0,0-1.245,2.921,3.277,3.277,0,0,0,3.607,3.632Zm20.4,2.743a1.418,1.418,0,0,1-.965-.254,2.07,2.07,0,0,1-.533-.991L35.08,3.411A4.449,4.449,0,0,1,34.851,2.4a.557.557,0,0,1,.61-.635H37.95a1.408,1.408,0,0,1,.991.254A2.078,2.078,0,0,1,39.449,3l4.267,16.815L47.678,3a1.782,1.782,0,0,1,.483-.991,1.747,1.747,0,0,1,1.016-.254h2.032a1.529,1.529,0,0,1,1.016.254A1.712,1.712,0,0,1,52.707,3L56.72,20.023,61.115,3a2.178,2.178,0,0,1,.508-.991,1.657,1.657,0,0,1,.991-.254h2.362a.565.565,0,0,1,.635.635,2.533,2.533,0,0,1-.051.406,3.613,3.613,0,0,1-.178.635L59.26,23.071a1.948,1.948,0,0,1-.533.991,1.625,1.625,0,0,1-.965.254H55.577a1.529,1.529,0,0,1-1.016-.254,1.8,1.8,0,0,1-.483-1.016L50.142,6.662,46.23,23.02a1.982,1.982,0,0,1-.483,1.016,1.574,1.574,0,0,1-1.016.254Zm32.638.686a16.808,16.808,0,0,1-3.912-.457A11.555,11.555,0,0,1,68.353,23.5a1.83,1.83,0,0,1-.787-.711,1.793,1.793,0,0,1-.152-.711v-1.3c0-.533.2-.787.584-.787a1.438,1.438,0,0,1,.457.076c.152.051.381.152.635.254a13.816,13.816,0,0,0,2.794.889,15.253,15.253,0,0,0,3.023.3,6.853,6.853,0,0,0,3.708-.838,2.735,2.735,0,0,0,1.321-2.413,2.474,2.474,0,0,0-.686-1.778,6.373,6.373,0,0,0-2.565-1.321L73,14.028a7.747,7.747,0,0,1-4.064-2.591,6.051,6.051,0,0,1-1.27-3.683,5.653,5.653,0,0,1,.686-2.819,6.531,6.531,0,0,1,1.829-2.083,8.062,8.062,0,0,1,2.642-1.321,11.07,11.07,0,0,1,3.2-.432,12.751,12.751,0,0,1,1.7.1c.584.076,1.118.178,1.651.279.508.127.991.254,1.448.406a5.543,5.543,0,0,1,1.067.457,2.2,2.2,0,0,1,.762.635,1.369,1.369,0,0,1,.229.838V5.012c0,.533-.2.813-.584.813a2.642,2.642,0,0,1-.965-.3,11.62,11.62,0,0,0-4.877-.991,6.556,6.556,0,0,0-3.378.711A2.453,2.453,0,0,0,71.884,7.5a2.4,2.4,0,0,0,.762,1.8,7.587,7.587,0,0,0,2.794,1.4l3.607,1.143a7.725,7.725,0,0,1,3.937,2.438,5.748,5.748,0,0,1,1.168,3.556,6.53,6.53,0,0,1-.66,2.946,6.831,6.831,0,0,1-1.854,2.235,8.187,8.187,0,0,1-2.819,1.422,12.078,12.078,0,0,1-3.632.533Z" transform="translate(-9.274)" fill="#252f3e"/>
      <g id="Group_18481" data-name="Group 18481" transform="translate(1.668 29.571)">
        <path id="Path_26890" data-name="Path 26890" d="M70.712,125.38c-8.356,6.172-20.5,9.449-30.937,9.449a55.968,55.968,0,0,1-37.769-14.4c-.787-.711-.076-1.676.864-1.118a76.17,76.17,0,0,0,37.795,10.033,75.42,75.42,0,0,0,28.829-5.893C70.89,122.815,72.084,124.364,70.712,125.38Z" transform="translate(-1.668 -117.631)" fill="#f90" fill-rule="evenodd"/>
        <path id="Path_26891" data-name="Path 26891" d="M256.455,116.979c-1.067-1.372-7.061-.66-9.779-.33-.813.1-.94-.61-.2-1.143,4.775-3.353,12.624-2.388,13.538-1.27.914,1.143-.254,8.991-4.724,12.751-.686.584-1.346.279-1.041-.483C255.261,123.989,257.521,118.325,256.455,116.979Z" transform="translate(-183.931 -113.192)" fill="#f90" fill-rule="evenodd"/>
      </g>
    </g>
  </g>
</svg>
