<svg xmlns="http://www.w3.org/2000/svg" width="122" height="122" viewBox="0 0 122 122">
  <g id="Group_18566" data-name="Group 18566" transform="translate(-82 -6964)">
    <g id="Rectangle_10853" data-name="Rectangle 10853" transform="translate(82 6964)" fill="#fff" stroke="#707070" stroke-width="1" opacity="0.1">
      <rect width="122" height="122" rx="16" stroke="none"/>
      <rect x="0.5" y="0.5" width="121" height="121" rx="15.5" fill="none"/>
    </g>
    <g id="html-1" transform="translate(119.131 6998.563)">
      <path id="Path_26731" data-name="Path 26731" d="M3.925,47.963,0,0,46.87.1,42.72,47.963,23.612,53.5Z" fill="#e34f26"/>
      <path id="Path_26732" data-name="Path 26732" d="M62.468,56.381v-44.3l19.3.064L78.327,51.781Z" transform="translate(-38.856 -7.517)" fill="#ef652a"/>
      <path id="Path_26733" data-name="Path 26733" d="M51.528,31.727l.547-5.855H22.383l1.64,17.95H44.515l-.8,7.656-6.562,1.769-6.659-1.93-.354-4.568H24.249l.8,9.329,12.1,3.378L49.34,56.078l1.64-18.207H29.46l-.611-6.144Z" transform="translate(-13.923 -16.093)" fill="#fff"/>
    </g>
  </g>
</svg>
